HIERARCHY
ROOT hip
{
  OFFSET 0 0 0
  CHANNELS 6 Xposition Yposition Zposition Zrotation Yrotation Xrotation
  JOINT abdomen
  {
    OFFSET 0 20.6881 -0.73152
    CHANNELS 3 Zrotation Xrotation Yrotation
    JOINT chest
    {
      OFFSET 0 11.7043 -0.48768
      CHANNELS 3 Zrotation Xrotation Yrotation
      JOINT neck
      {
        OFFSET 0 22.1894 -2.19456
        CHANNELS 3 Zrotation Xrotation Yrotation
        JOINT head
        {
          OFFSET -0.24384 7.07133 1.2192
          CHANNELS 3 Zrotation Xrotation Yrotation
          JOINT leftEye
          {
            OFFSET 4.14528 8.04674 8.04672
            CHANNELS 3 Zrotation Xrotation Yrotation
            End Site
            {
              OFFSET 1 0 0
            }
          }
          JOINT rightEye
          {
            OFFSET -3.6576 8.04674 8.04672
            CHANNELS 3 Zrotation Xrotation Yrotation
            End Site
            {
              OFFSET 1 0 0
            }
          }
        }
      }
      JOINT rCollar
      {
        OFFSET -2.68224 19.2634 -4.8768
        CHANNELS 3 Zrotation Xrotation Yrotation
        JOINT rShldr
        {
          OFFSET -8.77824 -1.95073 1.46304
          CHANNELS 3 Zrotation Xrotation Yrotation
          JOINT rForeArm
          {
            OFFSET -28.1742 -1.7115 0.48768
            CHANNELS 3 Zrotation Xrotation Yrotation
            JOINT rHand
            {
              OFFSET -22.5879 0.773209 7.07136
              CHANNELS 3 Zrotation Xrotation Yrotation
              JOINT rThumb1
              {
                OFFSET -1.2192 -0.487915 3.41376
                CHANNELS 3 Zrotation Xrotation Yrotation
                JOINT rThumb2
                {
                  OFFSET -3.37035 -0.52449 3.41376
                  CHANNELS 3 Zrotation Xrotation Yrotation
                  End Site
                  {
                    OFFSET -1.78271 -1.18214 1.43049
                  }
                }
              }
              JOINT rIndex1
              {
                OFFSET -7.75947 0.938293 5.60832
                CHANNELS 3 Zrotation Xrotation Yrotation
                JOINT rIndex2
                {
                  OFFSET -2.54057 -0.884171 1.56538
                  CHANNELS 3 Zrotation Xrotation Yrotation
                  End Site
                  {
                    OFFSET -1.62519 -0.234802 1.16502
                  }
                }
              }
              JOINT rMid1
              {
                OFFSET -8.24714 1.18213 3.41376
                CHANNELS 3 Zrotation Xrotation Yrotation
                JOINT rMid2
                {
                  OFFSET -3.10165 -0.590103 1.0647
                  CHANNELS 3 Zrotation Xrotation Yrotation
                  End Site
                  {
                    OFFSET -2.48547 -0.328903 0.83742
                  }
                }
              }
              JOINT rRing1
              {
                OFFSET -8.82822 0.546677 1.51678
                CHANNELS 3 Zrotation Xrotation Yrotation
                JOINT rRing2
                {
                  OFFSET -2.60934 -0.819778 -0.0198488
                  CHANNELS 3 Zrotation Xrotation Yrotation
                  End Site
                  {
                    OFFSET -2.33842 -0.294052 0.168128
                  }
                }
              }
              JOINT rPinky1
              {
                OFFSET -8.27202 -0.0477905 -0.4584
                CHANNELS 3 Zrotation Xrotation Yrotation
                JOINT rPinky2
                {
                  OFFSET -1.82734 -0.647385 -0.700984
                  CHANNELS 3 Zrotation Xrotation Yrotation
                  End Site
                  {
                    OFFSET -1.69225 -0.51767 -0.607171
                  }
                }
              }
            }
          }
        }
      }
      JOINT lCollar
      {
        OFFSET 2.68224 19.2634 -4.8768
        CHANNELS 3 Zrotation Xrotation Yrotation
        JOINT lShldr
        {
          OFFSET 8.77824 -1.95073 1.46304
          CHANNELS 3 Zrotation Xrotation Yrotation
          JOINT lForeArm
          {
            OFFSET 28.1742 -1.7115 0.48768
            CHANNELS 3 Zrotation Xrotation Yrotation
            JOINT lHand
            {
              OFFSET 22.5879 0.773209 7.07136
              CHANNELS 3 Zrotation Xrotation Yrotation
              JOINT lThumb1
              {
                OFFSET 1.2192 -0.487915 3.41376
                CHANNELS 3 Zrotation Xrotation Yrotation
                JOINT lThumb2
                {
                  OFFSET 3.37035 -0.52449 3.41376
                  CHANNELS 3 Zrotation Xrotation Yrotation
                  End Site
                  {
                    OFFSET 1.78271 -1.18214 1.43049
                  }
                }
              }
              JOINT lIndex1
              {
                OFFSET 7.75947 0.938293 5.60832
                CHANNELS 3 Zrotation Xrotation Yrotation
                JOINT lIndex2
                {
                  OFFSET 2.54057 -0.884171 1.56538
                  CHANNELS 3 Zrotation Xrotation Yrotation
                  End Site
                  {
                    OFFSET 1.62519 -0.234802 1.16502
                  }
                }
              }
              JOINT lMid1
              {
                OFFSET 8.24714 1.18213 3.41376
                CHANNELS 3 Zrotation Xrotation Yrotation
                JOINT lMid2
                {
                  OFFSET 3.10165 -0.590103 1.0647
                  CHANNELS 3 Zrotation Xrotation Yrotation
                  End Site
                  {
                    OFFSET 2.48547 -0.328903 0.83742
                  }
                }
              }
              JOINT lRing1
              {
                OFFSET 8.82822 0.546677 1.51678
                CHANNELS 3 Zrotation Xrotation Yrotation
                JOINT lRing2
                {
                  OFFSET 2.60934 -0.819778 -0.0198488
                  CHANNELS 3 Zrotation Xrotation Yrotation
                  End Site
                  {
                    OFFSET 2.33842 -0.294052 0.168128
                  }
                }
              }
              JOINT lPinky1
              {
                OFFSET 8.27202 -0.0477905 -0.4584
                CHANNELS 3 Zrotation Xrotation Yrotation
                JOINT lPinky2
                {
                  OFFSET 1.82734 -0.647385 -0.700984
                  CHANNELS 3 Zrotation Xrotation Yrotation
                  End Site
                  {
                    OFFSET 1.69225 -0.51767 -0.607171
                  }
                }
              }
            }
          }
        }
      }
    }
  }
  JOINT rButtock
  {
    OFFSET -8.77824 4.35084 1.2192
    CHANNELS 3 Zrotation Xrotation Yrotation
    JOINT rThigh
    {
      OFFSET 0 -1.70687 -2.19456
      CHANNELS 3 Zrotation Xrotation Yrotation
      JOINT rShin
      {
        OFFSET 0 -36.8199 0.73152
        CHANNELS 3 Zrotation Xrotation Yrotation
        JOINT rFoot
        {
          OFFSET 0.73152 -45.1104 -5.12064
          CHANNELS 3 Zrotation Xrotation Yrotation
          End Site
          {
            OFFSET -1.1221 -3.69964 12.103
          }
        }
      }
    }
  }
  JOINT lButtock
  {
    OFFSET 8.77824 4.35084 1.2192
    CHANNELS 3 Zrotation Xrotation Yrotation
    JOINT lThigh
    {
      OFFSET 0 -1.70687 -2.19456
      CHANNELS 3 Zrotation Xrotation Yrotation
      JOINT lShin
      {
        OFFSET 0 -36.8199 0.73152
        CHANNELS 3 Zrotation Xrotation Yrotation
        JOINT lFoot
        {
          OFFSET -0.73152 -45.1104 -5.12064
          CHANNELS 3 Zrotation Xrotation Yrotation
          End Site
          {
            OFFSET 1.1221 -3.69964 12.103
          }
        }
      }
    }
  }
}
MOTION
Frames:	6
Frame Time:	0.00833333
284.921 83.4871 -144.359 0.0 0.0 0.0 -2.59965 0.000366 -0.0702749 -0.716705 0.01229 -0.12403 4.73724e-14 0.0 -1.39149e-15 1.40612e-13 3.18055e-15 -4.17603e-15 -0.0 0.0 0.0 -0.0 0.0 0.0 2.34567e-14 1.23852e-16 -5.46658e-16 4.93455e-13 2.72087e-15 -1.25234e-14 8.45391e-12 -2.43392e-12 -3.53042e-13 9.67827e-11 3.00774e-12 -2.78299e-12 2.28277e-10 1.24309e-12 -6.81275e-12 3.94222e-10 2.13733e-12 -1.17855e-11 2.28285e-10 1.24558e-12 -6.82229e-12 7.73091 5.47488 0.417314 2.28278e-10 1.243e-12 -6.81275e-12 2.90554 0.965183 0.102902 2.28278e-10 1.2433e-12 -6.81752e-12 10.2786 0.731801 0.0259123 2.28275e-10 1.24201e-12 -6.80957e-12 2.22167 -0.733487 -0.20892 2.33586e-14 1.18028e-16 -8.44835e-16 4.9002e-13 2.31708e-15 -1.41137e-14 8.46813e-12 2.60786e-12 -3.53042e-13 9.67838e-11 -2.05161e-12 -2.77344e-12 2.28312e-10 1.20633e-12 -6.81275e-12 3.9428e-10 2.08008e-12 -1.17617e-11 2.28305e-10 1.21259e-12 -6.80003e-12 -7.73091 5.47488 -0.417314 2.2831e-10 1.20762e-12 -6.80639e-12 -2.90554 0.965183 -0.102902 2.28298e-10 1.20692e-12 -6.80877e-12 -10.2786 0.731801 -0.0259123 2.28307e-10 1.20543e-12 -6.81275e-12 -2.22167 -0.733487 0.20892 -2.03217e-16 0.0 -3.88251e-19 -1.5008 -1.93106 0.00776789 -0.00872204 -2.07863 -0.0717187 -0.472717 3.99921 0.134519 2.03217e-16 0.0 3.88251e-19 -2.45041 -8.43847 0.261208 -0.00685703 9.70809 -0.175599 0.523187 -1.28002 -0.032831
278.325 82.768 -147.389 -2.5876 -59.5117 -0.9682 -2.31145 2.16476 -0.943283 -0.799564 0.842133 -0.416028 0.532384 3.29942 0.267383 -0.873751 -5.63874 0.322532 -0.0 0.0 0.0 -0.0 0.0 0.0 2.80221e-14 -8.82586e-14 -1.26326e-13 21.7326 6.87057 0.951787 -4.34428 -1.99985 6.75765 0.000488972 0.490563 0.068935 6.15339e-10 -4.07658e-10 -5.03119e-11 1.06466e-09 -7.05724e-10 -8.95031e-11 6.15348e-10 -4.07654e-10 -5.03262e-11 7.73091 5.47488 0.417314 6.15339e-10 -4.07656e-10 -5.03138e-11 2.90554 0.965183 0.102902 6.15341e-10 -4.07656e-10 -5.03165e-11 10.2786 0.731801 0.0259123 6.15337e-10 -4.07657e-10 -5.03115e-11 2.22167 -0.733487 -0.20892 2.79326e-14 -8.82604e-14 -1.26581e-13 -21.4252 7.47957 -0.559771 4.41143 -2.04404 -6.84676 -0.0646976 -5.64729 0.779818 1.61332e-11 -7.47521e-10 -7.97441e-10 3.92148e-11 -1.29452e-09 -1.38097e-09 1.61254e-11 -7.47517e-10 -7.97429e-10 -7.73091 5.47488 -0.417314 1.6132e-11 -7.4752e-10 -7.97437e-10 -2.90554 0.965183 -0.102902 1.6121e-11 -7.47521e-10 -7.97437e-10 -10.2786 0.731801 -0.0259123 1.61297e-11 -7.47522e-10 -7.97443e-10 -2.22167 -0.733487 0.20892 -2.03217e-16 0.0 -3.88251e-19 -1.70475 -4.23961 0.619263 0.0167166 7.02506 0.101211 -1.07522 -1.95259 -4.05258 2.03217e-16 0.0 3.88251e-19 -0.58818 -8.2709 3.06219 -0.0264416 14.7154 -0.241097 0.827349 -4.94989 2.36628
278.322 82.7703 -147.389 -2.6638 -59.4645 -0.9218 -1.93829 4.45048 -1.87063 -0.877596 1.71669 -0.725044 1.06087 6.78901 0.553538 -1.72515 -11.6003 0.6755 -0.0 0.0 0.0 -0.0 0.0 0.0 3.50288e-14 -1.87502e-13 -2.75106e-13 44.4546 14.128 2.00613 -8.42818 -4.02163 13.9285 -0.000277439 1.00829 0.141705 1.06999e-09 -8.78206e-10 -1.16603e-10 1.8521e-09 -1.52031e-09 -2.07007e-10 1.07e-09 -8.78201e-10 -1.16622e-10 7.73091 5.47488 0.417314 1.06999e-09 -8.78202e-10 -1.16607e-10 2.90554 0.965183 0.102902 1.07e-09 -8.78203e-10 -1.16607e-10 10.2786 0.731801 0.0259123 1.06999e-09 -8.78203e-10 -1.16605e-10 2.22167 -0.733487 -0.20892 3.49488e-14 -1.87499e-13 -2.75314e-13 -43.9087 15.3857 -1.18216 8.54744 -4.1073 -14.112 0.0372377 -11.6162 1.63013 -2.1884e-10 -1.61662e-09 -1.70327e-09 -3.53492e-10 -2.79955e-09 -2.94965e-09 -2.18848e-10 -1.61661e-09 -1.70326e-09 -7.73091 5.47488 -0.417314 -2.1884e-10 -1.61662e-09 -1.70327e-09 -2.90554 0.965183 -0.102902 -2.1885e-10 -1.61662e-09 -1.70326e-09 -10.2786 0.731801 -0.0259123 -2.18842e-10 -1.61662e-09 -1.70327e-09 -2.22167 -0.733487 0.20892 -2.03217e-16 0.0 -3.88251e-19 -1.86631 -6.67856 1.27354 -0.0181239 16.6461 0.294743 -2.66238 -8.16339 -8.56233 2.03217e-16 0.0 3.88251e-19 1.36566 -8.07485 6.03025 -0.033754 20.0103 -0.315808 1.48521 -8.80524 4.93641
278.323 82.7754 -147.373 -2.6212 -59.3968 -1.001 -1.53616 6.48725 -2.70461 -0.939885 2.50151 -1.00084 1.50358 9.89738 0.812919 -2.42348 -16.914 1.00645 -0.0 0.0 0.0 -0.0 0.0 0.0 3.71529e-14 -2.65024e-13 -3.77885e-13 64.4737 20.5881 3.02844 -11.6446 -5.66643 20.3644 -0.00207537 1.47168 0.206866 1.38946e-09 -1.22546e-09 -1.3731e-10 2.40555e-09 -2.12145e-09 -2.44938e-10 1.38947e-09 -1.22545e-09 -1.37334e-10 7.73091 5.47488 0.417314 1.38946e-09 -1.22545e-09 -1.37316e-10 2.90554 0.965183 0.102902 1.38947e-09 -1.22546e-09 -1.37314e-10 10.2786 0.731801 0.0259123 1.38946e-09 -1.22545e-09 -1.37315e-10 2.22167 -0.733487 -0.20892 3.70804e-14 -2.65017e-13 -3.78054e-13 -63.8067 22.4298 -1.80134 11.7974 -5.78259 -20.6369 0.284708 -16.929 2.43361 -4.08225e-10 -2.24497e-09 -2.3787e-09 -6.70916e-10 -3.88772e-09 -4.11939e-09 -4.08234e-10 -2.24497e-09 -2.37869e-09 -7.73091 5.47488 -0.417314 -4.08224e-10 -2.24498e-09 -2.3787e-09 -2.90554 0.965183 -0.102902 -4.08232e-10 -2.24498e-09 -2.37869e-09 -10.2786 0.731801 -0.0259123 -4.08226e-10 -2.24498e-09 -2.3787e-09 -2.22167 -0.733487 0.20892 -2.03217e-16 0.0 -3.88251e-19 -1.96322 -8.85286 1.85934 -0.110036 25.2317 0.4916 -4.92394 -13.5401 -12.78 2.03217e-16 0.0 3.88251e-19 3.08607 -7.88093 8.65654 -0.0273488 24.7297 -0.389081 2.37357 -12.2054 7.30397
278.321 82.7782 -147.364 -2.6173 -59.3519 -1.0349 -1.20235 7.90753 -3.2907 -0.980632 3.06228 -1.19286 1.79869 12.0535 0.99504 -2.88282 -20.6103 1.24503 -0.0 0.0 0.0 -0.0 0.0 0.0 2.70709e-14 -2.88242e-13 -3.65664e-13 78.2619 25.0778 3.80592 -13.661 -6.68642 24.8759 -0.0039719 1.79921 0.252947 1.37096e-09 -1.26447e-09 -4.40602e-11 2.37405e-09 -2.18894e-09 -8.39396e-11 1.37098e-09 -1.26447e-09 -4.40857e-11 7.73091 5.47488 0.417314 1.37096e-09 -1.26447e-09 -4.40666e-11 2.90554 0.965183 0.102902 1.37097e-09 -1.26447e-09 -4.40642e-11 10.2786 0.731801 0.0259123 1.37096e-09 -1.26447e-09 -4.40666e-11 2.22167 -0.733487 -0.20892 2.70003e-14 -2.88233e-13 -3.65813e-13 -77.5793 27.3268 -2.29799 13.8332 -6.82066 -25.2191 0.551196 -20.6137 3.0303 -4.83638e-10 -2.2715e-09 -2.47814e-09 -8.00133e-10 -3.93376e-09 -4.29177e-09 -4.83647e-10 -2.2715e-09 -2.47813e-09 -7.73091 5.47488 -0.417314 -4.83636e-10 -2.2715e-09 -2.47814e-09 -2.90554 0.965183 -0.102902 -4.83644e-10 -2.2715e-09 -2.47814e-09 -10.2786 0.731801 -0.0259123 -4.83638e-10 -2.2715e-09 -2.47815e-09 -2.22167 -0.733487 0.20892 -2.03217e-16 0.0 -3.88251e-19 -2.00549 -10.3691 2.25873 -0.215532 31.2291 0.652462 -6.9913 -17.1492 -15.8853 2.03217e-16 0.0 3.88251e-19 4.25885 -7.73056 10.4339 -0.0148622 28.0104 -0.444927 3.17496 -14.5453 9.03807
278.33 82.7672 -147.357 -2.6302 -59.3061 -1.0499 -1.02688 8.47182 -3.52071 -1.00159 3.31059 -1.2673 1.91842 12.8756 1.06114 -3.07854 -22.0443 1.32513 -0.0 0.0 0.0 -0.0 0.0 0.0 -1.20429e-14 -2.19466e-13 -1.16032e-13 83.5976 26.8259 4.1131 -14.4013 -7.05048 26.6446 -0.00489644 1.93504 0.272063 6.69543e-10 -7.16365e-10 3.6451e-10 1.16099e-09 -1.2399e-09 6.25943e-10 6.69557e-10 -7.16364e-10 3.64487e-10 7.73091 5.47488 0.417314 6.69544e-10 -7.16364e-10 3.64505e-10 2.90554 0.965183 0.102902 6.6955e-10 -7.16366e-10 3.64506e-10 10.2786 0.731801 0.0259123 6.69538e-10 -7.16364e-10 3.64504e-10 2.22167 -0.733487 -0.20892 -1.21208e-14 -2.19456e-13 -1.16192e-13 -82.9512 29.2196 -2.53885 14.5819 -7.19234 -27.0212 0.67607 -22.0225 3.26956 -3.79511e-10 -1.0916e-09 -1.49434e-09 -6.36003e-10 -1.89091e-09 -2.5887e-09 -3.79519e-10 -1.09161e-09 -1.49432e-09 -7.73091 5.47488 -0.417314 -3.79509e-10 -1.09161e-09 -1.49434e-09 -2.90554 0.965183 -0.102902 -3.79516e-10 -1.09161e-09 -1.49433e-09 -10.2786 0.731801 -0.0259123 -3.7951e-10 -1.09161e-09 -1.49434e-09 -2.22167 -0.733487 0.20892 -2.03217e-16 0.0 -3.88251e-19 -2.02154 -10.9638 2.38557 -0.268316 33.6031 0.72325 -7.91072 -18.527 -17.135 2.03217e-16 0.0 3.88251e-19 4.67867 -7.65872 11.0221 -0.00813999 29.2809 -0.467859 3.54951 -15.4505 9.80066
